{
    "asset" : {
        "generator" : "Khronos glTF Blender I/O v1.4.40",
        "version" : "2.0"
    },
    "scene" : 0,
    "scenes" : [
        {
            "name" : "Scene",
            "nodes" : [
                0,
                1,
                2
            ]
        }
    ],
    "nodes" : [
        {
            "name" : "Light",
            "rotation" : [
                0.16907575726509094,
                0.7558803558349609,
                -0.27217137813568115,
                0.570947527885437
            ],
            "translation" : [
                4.076245307922363,
                5.903861999511719,
                -1.0054539442062378
            ]
        },
        {
            "name" : "Camera",
            "rotation" : [
                0.483536034822464,
                0.33687159419059753,
                -0.20870360732078552,
                0.7804827094078064
            ],
            "translation" : [
                7.358891487121582,
                4.958309173583984,
                6.925790786743164
            ]
        },
        {
            "mesh" : 0,
            "name" : "Object",
            "scale" : [
                -0.15799999237060547,
                0.16200000047683716,
                -0.11799998581409454
            ],
            "translation" : [
                3.469261407852173,
                1.7549408674240112,
                0
            ]
        }
    ],
    "materials" : [
        {
            "doubleSided" : true,
            "name" : "Aster_Small_6_",
            "pbrMetallicRoughness" : {}
        }
    ],
    "meshes" : [
        {
            "name" : "Cube.012",
            "primitives" : [
                {
                    "attributes" : {
                        "POSITION" : 0,
                        "NORMAL" : 1,
                        "TEXCOORD_0" : 2
                    },
                    "indices" : 3,
                    "material" : 0
                }
            ]
        }
    ],
    "accessors" : [
        {
            "bufferView" : 0,
            "componentType" : 5126,
            "count" : 1034,
            "max" : [
                1.6472501754760742,
                1.7963786125183105,
                1.8317949771881104
            ],
            "min" : [
                -1.8341419696807861,
                -1.6774842739105225,
                -1.8962754011154175
            ],
            "type" : "VEC3"
        },
        {
            "bufferView" : 1,
            "componentType" : 5126,
            "count" : 1034,
            "type" : "VEC3"
        },
        {
            "bufferView" : 2,
            "componentType" : 5126,
            "count" : 1034,
            "type" : "VEC2"
        },
        {
            "bufferView" : 3,
            "componentType" : 5123,
            "count" : 5124,
            "type" : "SCALAR"
        }
    ],
    "bufferViews" : [
        {
            "buffer" : 0,
            "byteLength" : 12408,
            "byteOffset" : 0
        },
        {
            "buffer" : 0,
            "byteLength" : 12408,
            "byteOffset" : 12408
        },
        {
            "buffer" : 0,
            "byteLength" : 8272,
            "byteOffset" : 24816
        },
        {
            "buffer" : 0,
            "byteLength" : 10248,
            "byteOffset" : 33088
        }
    ],
    "buffers" : [
        {
            "byteLength" : 43336,
            "uri" : "data:application/octet-stream;base64,"
        }
    ]
}
