{
    "asset" : {
        "generator" : "Khronos glTF Blender I/O v1.4.40",
        "version" : "2.0"
    },
    "scene" : 0,
    "scenes" : [
        {
            "name" : "Scene",
            "nodes" : [
                0,
                1,
                2,
                3,
                4
            ]
        }
    ],
    "nodes" : [
        {
            "mesh" : 0,
            "name" : "Antenna",
            "scale" : [
                0.060900043696165085,
                0.03471602499485016,
                0.03471602499485016
            ],
            "translation" : [
                3.93338680267334,
                -4.088410423719324e-05,
                0
            ]
        },
        {
            "mesh" : 1,
            "name" : "Sat\u00e9lite",
            "rotation" : [
                0,
                0,
                -0.7071067690849304,
                0.7071068286895752
            ],
            "scale" : [
                1,
                0.6255514621734619,
                1
            ],
            "translation" : [
                0.6603958606719971,
                1.6777428754721768e-05,
                -0.00016795142437331378
            ]
        },
        {
            "mesh" : 2,
            "name" : "Pinos",
            "rotation" : [
                0,
                0,
                -0.8747024536132812,
                0.4846605360507965
            ],
            "scale" : [
                0.00838986225426197,
                1.11529541015625,
                0.008389863185584545
            ],
            "translation" : [
                3.071117401123047,
                -0.0015053153038024902,
                0
            ]
        },
        {
            "mesh" : 3,
            "name" : "Placas",
            "rotation" : [
                0,
                0,
                -0.7071067690849304,
                0.7071068286895752
            ],
            "scale" : [
                1,
                0.6255514621734619,
                1
            ],
            "translation" : [
                -0.24694454669952393,
                -0.1976659893989563,
                0
            ]
        },
        {
            "mesh" : 4,
            "name" : "Couro",
            "rotation" : [
                0,
                0,
                -0.7071067690849304,
                0.7071068286895752
            ],
            "scale" : [
                1,
                0.6255514621734619,
                1
            ],
            "translation" : [
                0.46238088607788086,
                0,
                0
            ]
        }
    ],
    "materials" : [
        {
            "doubleSided" : true,
            "name" : "Antenna",
            "pbrMetallicRoughness" : {}
        },
        {
            "doubleSided" : true,
            "name" : "Sat\u00e9lite",
            "pbrMetallicRoughness" : {}
        },
        {
            "doubleSided" : true,
            "name" : "Pinos",
            "pbrMetallicRoughness" : {}
        },
        {
            "doubleSided" : true,
            "name" : "Placas",
            "pbrMetallicRoughness" : {}
        },
        {
            "doubleSided" : true,
            "name" : "Couro",
            "pbrMetallicRoughness" : {}
        }
    ],
    "meshes" : [
        {
            "name" : "Cube",
            "primitives" : [
                {
                    "attributes" : {
                        "POSITION" : 0,
                        "NORMAL" : 1,
                        "TEXCOORD_0" : 2
                    },
                    "indices" : 3,
                    "material" : 0
                }
            ]
        },
        {
            "name" : "Cylinder.004",
            "primitives" : [
                {
                    "attributes" : {
                        "POSITION" : 4,
                        "NORMAL" : 5,
                        "TEXCOORD_0" : 6
                    },
                    "indices" : 7,
                    "material" : 1
                }
            ]
        },
        {
            "name" : "Cylinder.002",
            "primitives" : [
                {
                    "attributes" : {
                        "POSITION" : 8,
                        "NORMAL" : 9,
                        "TEXCOORD_0" : 10
                    },
                    "indices" : 11,
                    "material" : 2
                }
            ]
        },
        {
            "name" : "Cylinder.001",
            "primitives" : [
                {
                    "attributes" : {
                        "POSITION" : 12,
                        "NORMAL" : 13,
                        "TEXCOORD_0" : 14
                    },
                    "indices" : 15,
                    "material" : 3
                }
            ]
        },
        {
            "name" : "Cylinder",
            "primitives" : [
                {
                    "attributes" : {
                        "POSITION" : 16,
                        "NORMAL" : 17,
                        "TEXCOORD_0" : 18
                    },
                    "indices" : 19,
                    "material" : 4
                }
            ]
        }
    ],
    "accessors" : [
        {
            "bufferView" : 0,
            "componentType" : 5126,
            "count" : 280,
            "max" : [
                0.8941569328308105,
                1,
                1
            ],
            "min" : [
                -1.4635947942733765,
                -1,
                -1
            ],
            "type" : "VEC3"
        },
        {
            "bufferView" : 1,
            "componentType" : 5126,
            "count" : 280,
            "type" : "VEC3"
        },
        {
            "bufferView" : 2,
            "componentType" : 5126,
            "count" : 280,
            "type" : "VEC2"
        },
        {
            "bufferView" : 3,
            "componentType" : 5123,
            "count" : 468,
            "type" : "SCALAR"
        },
        {
            "bufferView" : 4,
            "componentType" : 5126,
            "count" : 5353,
            "max" : [
                1.9227018356323242,
                5.119802474975586,
                1.922852635383606
            ],
            "min" : [
                -1.9226677417755127,
                -4.606305122375488,
                -1.9225174188613892
            ],
            "type" : "VEC3"
        },
        {
            "bufferView" : 5,
            "componentType" : 5126,
            "count" : 5353,
            "type" : "VEC3"
        },
        {
            "bufferView" : 6,
            "componentType" : 5126,
            "count" : 5353,
            "type" : "VEC2"
        },
        {
            "bufferView" : 7,
            "componentType" : 5123,
            "count" : 15336,
            "type" : "SCALAR"
        },
        {
            "bufferView" : 8,
            "componentType" : 5126,
            "count" : 332,
            "max" : [
                160.8704376220703,
                0.6282637715339661,
                1.000032901763916
            ],
            "min" : [
                -58.65519714355469,
                -1.1311399936676025,
                -1.000030279159546
            ],
            "type" : "VEC3"
        },
        {
            "bufferView" : 9,
            "componentType" : 5126,
            "count" : 332,
            "type" : "VEC3"
        },
        {
            "bufferView" : 10,
            "componentType" : 5126,
            "count" : 332,
            "type" : "VEC2"
        },
        {
            "bufferView" : 11,
            "componentType" : 5123,
            "count" : 744,
            "type" : "SCALAR"
        },
        {
            "bufferView" : 12,
            "componentType" : 5126,
            "count" : 700,
            "max" : [
                0.1573018729686737,
                1.533766508102417,
                5.009529113769531
            ],
            "min" : [
                -0.19766634702682495,
                -1.533427357673645,
                -5.009528160095215
            ],
            "type" : "VEC3"
        },
        {
            "bufferView" : 13,
            "componentType" : 5126,
            "count" : 700,
            "type" : "VEC3"
        },
        {
            "bufferView" : 14,
            "componentType" : 5126,
            "count" : 700,
            "type" : "VEC2"
        },
        {
            "bufferView" : 15,
            "componentType" : 5123,
            "count" : 2064,
            "type" : "SCALAR"
        },
        {
            "bufferView" : 16,
            "componentType" : 5126,
            "count" : 1152,
            "max" : [
                0.6133847236633301,
                0.30694150924682617,
                0.6133846044540405
            ],
            "min" : [
                -0.6133846640586853,
                -0.3195812702178955,
                -0.6133847832679749
            ],
            "type" : "VEC3"
        },
        {
            "bufferView" : 17,
            "componentType" : 5126,
            "count" : 1152,
            "type" : "VEC3"
        },
        {
            "bufferView" : 18,
            "componentType" : 5126,
            "count" : 1152,
            "type" : "VEC2"
        },
        {
            "bufferView" : 19,
            "componentType" : 5123,
            "count" : 4992,
            "type" : "SCALAR"
        }
    ],
    "bufferViews" : [
        {
            "buffer" : 0,
            "byteLength" : 3360,
            "byteOffset" : 0
        },
        {
            "buffer" : 0,
            "byteLength" : 3360,
            "byteOffset" : 3360
        },
        {
            "buffer" : 0,
            "byteLength" : 2240,
            "byteOffset" : 6720
        },
        {
            "buffer" : 0,
            "byteLength" : 936,
            "byteOffset" : 8960
        },
        {
            "buffer" : 0,
            "byteLength" : 64236,
            "byteOffset" : 9896
        },
        {
            "buffer" : 0,
            "byteLength" : 64236,
            "byteOffset" : 74132
        },
        {
            "buffer" : 0,
            "byteLength" : 42824,
            "byteOffset" : 138368
        },
        {
            "buffer" : 0,
            "byteLength" : 30672,
            "byteOffset" : 181192
        },
        {
            "buffer" : 0,
            "byteLength" : 3984,
            "byteOffset" : 211864
        },
        {
            "buffer" : 0,
            "byteLength" : 3984,
            "byteOffset" : 215848
        },
        {
            "buffer" : 0,
            "byteLength" : 2656,
            "byteOffset" : 219832
        },
        {
            "buffer" : 0,
            "byteLength" : 1488,
            "byteOffset" : 222488
        },
        {
            "buffer" : 0,
            "byteLength" : 8400,
            "byteOffset" : 223976
        },
        {
            "buffer" : 0,
            "byteLength" : 8400,
            "byteOffset" : 232376
        },
        {
            "buffer" : 0,
            "byteLength" : 5600,
            "byteOffset" : 240776
        },
        {
            "buffer" : 0,
            "byteLength" : 4128,
            "byteOffset" : 246376
        },
        {
            "buffer" : 0,
            "byteLength" : 13824,
            "byteOffset" : 250504
        },
        {
            "buffer" : 0,
            "byteLength" : 13824,
            "byteOffset" : 264328
        },
        {
            "buffer" : 0,
            "byteLength" : 9216,
            "byteOffset" : 278152
        },
        {
            "buffer" : 0,
            "byteLength" : 9984,
            "byteOffset" : 287368
        }
    ],
    "buffers" : [
        {
            "byteLength" : 297352,
            "uri" : "data:application/octet-stream;base64,"
        }
    ]
}
