{
    "asset" : {
        "generator" : "Khronos glTF Blender I/O v1.4.40",
        "version" : "2.0"
    },
    "scene" : 0,
    "scenes" : [
        {
            "name" : "Scene",
            "nodes" : [
                0
            ]
        }
    ],
    "nodes" : [
        {
            "mesh" : 0,
            "name" : "Cube",
            "scale" : [
                0.04000005125999451,
                0.04000002145767212,
                0.08000004291534424
            ],
            "translation" : [
                1.6473491191864014,
                1.7532850503921509,
                -0.0006223598029464483
            ]
        }
    ],
    "materials" : [
        {
            "doubleSided" : true,
            "name" : "Material",
            "pbrMetallicRoughness" : {
                "baseColorFactor" : [
                    0.800000011920929,
                    0.800000011920929,
                    0.800000011920929,
                    1
                ],
                "metallicFactor" : 0,
                "roughnessFactor" : 0.5
            }
        }
    ],
    "meshes" : [
        {
            "name" : "Cube",
            "primitives" : [
                {
                    "attributes" : {
                        "POSITION" : 0,
                        "NORMAL" : 1
                    },
                    "indices" : 2,
                    "material" : 0
                }
            ]
        }
    ],
    "accessors" : [
        {
            "bufferView" : 0,
            "componentType" : 5126,
            "count" : 3834,
            "max" : [
                1.2815157175064087,
                1.6955809593200684,
                5.403164863586426
            ],
            "min" : [
                -4.964284420013428,
                -1.1978530883789062,
                -5.403326034545898
            ],
            "type" : "VEC3"
        },
        {
            "bufferView" : 1,
            "componentType" : 5126,
            "count" : 3834,
            "type" : "VEC3"
        },
        {
            "bufferView" : 2,
            "componentType" : 5123,
            "count" : 6156,
            "type" : "SCALAR"
        }
    ],
    "bufferViews" : [
        {
            "buffer" : 0,
            "byteLength" : 46008,
            "byteOffset" : 0
        },
        {
            "buffer" : 0,
            "byteLength" : 46008,
            "byteOffset" : 46008
        },
        {
            "buffer" : 0,
            "byteLength" : 12312,
            "byteOffset" : 92016
        }
    ],
    "buffers" : [
        {
            "byteLength" : 104328,
            "uri" : "data:application/octet-stream;base64,"
        }
    ]
}
